<svg xmlns="http://www.w3.org/2000/svg" viewBox="0 0 167.62 65.02">
    <defs>
        <style>
            .svg-hd-birds {
                fill: #c9ecf3;
            }
        </style>
    </defs>
    <title>UniNZ logo birds</title>
    <g id="birds_header_Layer_2" data-name="birds_header_Layer_2">
        <g id="birds_header_Main_Navigation" data-name="birds header Main Navigation">
            <path class="svg-hd-birds" d="M71.67,13.1h0c1.14,4,2.55,10.4,2.55,10.4a3.09,3.09,0,0,1-.6,2.4,42.6,42.6,0,0,0-3,5c-.57-.34-8.49-3.89-11.95-5.4.41.43,2.9,2.57,3.22,2.81,1.09.82,2.09,1.6,3.15,2.32.71.49,1.56,1.12,1.65,1.91a19.59,19.59,0,0,0,.71,3.65l-.3.08a84,84,0,0,1-8.68,1.5s4.68.49,6.13.85c.92.23,2.33.86,3.28,1.19.66.22,3.76.68,4.5.79a27.82,27.82,0,0,0,4,.24h.41c.55,0,.85.07,1.34.09a2.54,2.54,0,0,1,.92.2,24.19,24.19,0,0,0,2.5,3.28,11.53,11.53,0,0,0-1.27-3.78,3.21,3.21,0,0,0-.65-2.49,4.57,4.57,0,0,0-3-1.31h0c-.69-.86-.29-2.06,0-3a8.88,8.88,0,0,1,1.77-3.29c.71-.85,2.12-2.08,2.13-3.19a10.16,10.16,0,0,0-1.25-4.17c-2-4.53-7.52-10-7.63-10"></path>
            <path class="svg-hd-birds" d="M9.91,11s.53.79.84,1.19c1.12,1.43,2.67,3.57,2.85,5.76a1.73,1.73,0,0,1-.12.86,106.68,106.68,0,0,0-10.85-5L0,13c.16.23,3.84,3,4.2,3.24.92.67,5,3.85,6,4.57a5.41,5.41,0,0,1,1,1c.21.51-.16,1.3-.47,2.31-1.14,3.71.55,6.48-2.56,8.13L2.93,33.51l2.84-.11c.39,0,.83,0,1.3,0a25.18,25.18,0,0,1,3.06.19l.84.08a15,15,0,0,0,1.71.08h.48c1.43,0,4.77-.55,4.77-.55,2-.32,3-1.62,5.28-2.14l1.51-.15c.63-.06,2.4-.43,2.4-.43a27,27,0,0,0-3.65-.65A5.18,5.18,0,0,0,20.83,29h-.33a8.33,8.33,0,0,0-1.91.27,5.81,5.81,0,0,1-.37-4.23,11.16,11.16,0,0,1,1-3c.27-.44.63-.68.65-1.12.07-1.45-.75-2.83-1.75-4.23A16.6,16.6,0,0,0,12.26,12,10.52,10.52,0,0,0,9.91,11"></path>
            <path class="svg-hd-birds" d="M83.69,32.22a17.25,17.25,0,0,0,.48,3.26c.11.26.94,7.57.64,8.63-.37,1.31-1.3,3.2-1.6,4.19-.4,1.31-.55,2.5-.86,3.72-.27,1.05-1.72,3.12-2.75,3.48a31.55,31.55,0,0,1-3.22.57c-.4.08-3.08.46-3.47.54.37,0,4.16.25,4.51.31,1,.16,1.8.31,2.85.55l.84.15c.06.36.34,2.28.32,2.36a10.83,10.83,0,0,1-1.22,2,13.18,13.18,0,0,1-3.4,3h.13a9.66,9.66,0,0,0,3.75-.95,22.51,22.51,0,0,0,3.14-1.84,32.25,32.25,0,0,0,2.61-2.06c.34-.31,1-1,1-1.36a4.9,4.9,0,0,0-.61-1,11,11,0,0,0,4.59-1.26,21.72,21.72,0,0,0,2.88-.27,14.21,14.21,0,0,0-2.75-.7,2.83,2.83,0,0,0-1.46-.7l-.21,0a3.16,3.16,0,0,0-.46,0,3.24,3.24,0,0,1-.48,0h-.08a3.9,3.9,0,0,1-.92-.13c-.74-.24-.53-2.09-.53-2.09A14.55,14.55,0,0,1,88,49.93c.31-.69.86-1.48,1.26-2.17s.77-1.06.66-1.89a21.21,21.21,0,0,0-1.3-5.82,26.73,26.73,0,0,0-2.83-5.4,30.71,30.71,0,0,0-2.1-2.43h0"></path>
            <path class="svg-hd-birds" d="M105.34,3.82s0,0,0,0l0,0a39.53,39.53,0,0,1,3.41,2.32c.86.75,1.55,1.4,2.16,2-.61-.63-1.3-1.28-2.16-2a39.33,39.33,0,0,0-3.41-2.32h0M112,9.39c.64.75,1.27,1.54,2,2.52a18.64,18.64,0,0,1,1.78,2.8,18.68,18.68,0,0,0-1.78-2.8c-.76-1-1.39-1.77-2-2.52m5.07,8.07c.21.51.37.94.5,1.24a2.23,2.23,0,0,1,.19.9,7,7,0,0,1-.38,1.66c-.19.7-.45,1.49-.65,2.24.19-.74.46-1.53.65-2.24.27-1,.6-1.58.19-2.56-.13-.3-.29-.73-.5-1.24m-7,6.63c0,.61,0,1.19,0,1.76,0-.41,0-.83,0-1.26q0-.25,0-.5m0,1.76v0m0,0v0m6.42.12c0,.48.07,1,.12,1.42,0-.45-.09-.94-.12-1.42m.52,3.68c.21.56.54,1.11,1,1.13h0c-.48,0-.8-.56-1-1.13m3.86.46h-.15a15.19,15.19,0,0,0-1.51.5,5.33,5.33,0,0,1-1.08.15h0a5.34,5.34,0,0,0,1.09-.15,15.28,15.28,0,0,1,1.51-.5h.15M122,30a3.64,3.64,0,0,1,.83.31,7.64,7.64,0,0,1,1-.09,7.64,7.64,0,0,0-1,.09A3.64,3.64,0,0,0,122,30m4.48.26A27.94,27.94,0,0,1,123,31.51a15.91,15.91,0,0,1-2.73,2,15.89,15.89,0,0,0,2.73-2,28.08,28.08,0,0,0,3.48-1.29h0m-16.39,0a8.42,8.42,0,0,1-1.87,3.7,8.41,8.41,0,0,0,1.87-3.7m-1.87,3.71h0m0,0h0m-.41.29c-1,.57-2.57,1.12-3.55,1.61,1-.5,2.59-1,3.55-1.61m10.94,1.26.07.1,0,.18a2.19,2.19,0,0,1-.23.81,1.47,1.47,0,0,0,.2-1l-.07-.1m-14.51.36c-.24.12-1.1.49-2,.88.88-.38,1.75-.76,2-.88m6.38.35-.76.07.76-.07Zm-2.46.17c-.63,0-1.22.09-1.84.15.62-.06,1.21-.11,1.84-.15m-4.13.53-3.91.78h0l3.92-.78m14.07.66,0,0,0,0-.07.11.07-.11,0,0M111.75,39a12.77,12.77,0,0,1-.78,2.7,13.11,13.11,0,0,0,.79-2.69Zm4.95.41c-.43.57-.87,1.12-1.24,1.58a28.8,28.8,0,0,1-3.28,3.32,11.6,11.6,0,0,1-1.68,1.21,11.67,11.67,0,0,0,1.68-1.21A28.77,28.77,0,0,0,115.45,41c.37-.46.81-1,1.24-1.58m-7.22,5.11a19.68,19.68,0,0,1-1.8,2.25,19.65,19.65,0,0,0,1.8-2.25"></path>
            <path class="svg-hd-birds" d="M105.71,3.82l0,0a25.62,25.62,0,0,0,1.69,3.85c.22.29,3.66,9,3.66,10.48v0s-.92,4.41-1,5.73c0,.05,0,.1,0,.15s0,.33,0,.5c0,.43,0,.85,0,1.26,0,0-.06,0-.06,0h0l.06,0a4.5,4.5,0,0,0,.94,2.93v0a1.61,1.61,0,0,0-1,1.35,8.41,8.41,0,0,1-1.87,3.7h0l-.17.14-.24.15c-1,.57-2.57,1.12-3.55,1.61h0c-.23.12-1.1.49-2,.88s-1.91.83-2.14.95h0l3.91-.78c.89-.18,1.62-.32,1.78-.33l.51,0c.62-.06,1.21-.11,1.84-.15l1.37-.07.33,0,.76-.07h0c.19.43,1.17,2.71,1.18,2.82h0a13.13,13.13,0,0,1-.79,2.69l-.07.18a12.34,12.34,0,0,1-1.42,2.64,19.59,19.59,0,0,1-1.8,2.25h0a10.62,10.62,0,0,0,2.82-1.25,11.67,11.67,0,0,0,1.68-1.21A28.76,28.76,0,0,0,115.45,41c.37-.46.81-1,1.24-1.58s.88-1.19,1.24-1.74l.07-.11,0,0h0a8.12,8.12,0,0,0,.53-1,2.17,2.17,0,0,0,.23-.81l0-.18-.07-.1a8.43,8.43,0,0,0-1-.89,18,18,0,0,0,2.54-1.1,15.9,15.9,0,0,0,2.73-2,27.88,27.88,0,0,0,3.48-1.29h0a13.14,13.14,0,0,0-1.55-.07l-1.1,0a7.64,7.64,0,0,0-1,.09,3.72,3.72,0,0,0-1.67-.41h-.37a15.23,15.23,0,0,0-1.51.5,5.35,5.35,0,0,1-1.09.15h0l-.08.28h0c-.47,0-.8-.56-1-1.13a7,7,0,0,1-.33-1.29l-.07-.69c0-.45-.09-.94-.12-1.42,0-.26,0-.51,0-.75a5.67,5.67,0,0,1,.06-.89c0-.28.11-.58.19-.88.19-.74.46-1.53.65-2.24a7,7,0,0,0,.38-1.66,2.23,2.23,0,0,0-.19-.9c-.13-.3-.29-.73-.5-1.24-.31-.77-.73-1.74-1.26-2.75a18.7,18.7,0,0,0-1.78-2.8c-.76-1-1.39-1.77-2-2.52-.36-.41-.72-.81-1.11-1.22-.61-.63-1.3-1.28-2.16-2a39.45,39.45,0,0,0-3.41-2.32"></path>
            <path class="svg-hd-birds" d="M41.77,0c-.22,0-.1,2.67-.17,2.89s-.1,8.26-.11,8.61a18,18,0,0,1-.92,3.5c-.17.48-.95,3.46-1,3.63a18.14,18.14,0,0,1-1.35,1.43,5.2,5.2,0,0,1-.6.39,2,2,0,0,1-.74.12c-.36,0-.72-.06-1.07-.07a36.78,36.78,0,0,1-4.3-.45c1,.38,3.41,1.1,4.22,1.87A18.78,18.78,0,0,0,39,23.37c1.24.42,2.17.81,3.45,1.17a5.59,5.59,0,0,0,1.3.28h.73c.65,0,1.53,0,1.94.06L47.7,25a24.37,24.37,0,0,0,2.56.87,9.45,9.45,0,0,0-2.19-1.71,5.35,5.35,0,0,0-1.68-1.49h0c.47,0,2.34-.58,2.44-.93a4.79,4.79,0,0,0-.51-1.52c-.15-.34-.94-2.33-1.29-2.95a7.11,7.11,0,0,1-.93,1.85,4.61,4.61,0,0,1-2,1.34v-.06a21,21,0,0,1,1.64-4.51c.68-1.33.4-2.31.13-3.78-.15-.79-4-12.1-4.13-12.1h0"></path>
            <path class="svg-hd-birds" d="M153.88,2.52h0c-.17.05.64,2.15.65,2.34s2.15,6.58,2.25,6.85a15.1,15.1,0,0,1,.22,3c0,.43.18,3,.16,3.16a15.23,15.23,0,0,1-.68,1.5l-.37.47a3.7,3.7,0,0,1-1.42.54,30.71,30.71,0,0,1-3.53.81,13.51,13.51,0,0,1,3.85.34,15.66,15.66,0,0,0,3,.26h2c.34,0,.7,0,1.08,0a4.6,4.6,0,0,0,1.11-.14c.24-.08,1.61-.57,2.12-.68l1.09-.25c.33,0,.74,0,1.14,0s.91,0,1.13,0a7.92,7.92,0,0,0-2.2-.76,4.47,4.47,0,0,0-1.74-.73c.36-.11,1.71-1.09,1.7-1.4s-.67-.91-.82-1.07-1.37-1.6-1.83-2a6,6,0,0,1-.23,1.72,3.88,3.88,0,0,1-1.23,1.6v-.05a17.63,17.63,0,0,1,.08-4c.18-1.24-.3-1.94-.92-3-.33-.59-6.43-8.48-6.55-8.48"></path>
            <path class="svg-hd-birds" d="M91.54,17.81a8.57,8.57,0,0,0,.31,1.61,26.45,26.45,0,0,1,.52,4.28c-.15.66-.57,1.62-.7,2.12-.17.66-.21,1.26-.34,1.87A3.29,3.29,0,0,1,90,29.5a15.55,15.55,0,0,1-1.59.36c-.2.05-1.52.3-1.72.35.18,0,2.08,0,2.25,0,.49.06.9.11,1.43.21l.42.05c0,.18.22,1.12.21,1.17a5.47,5.47,0,0,1-.56,1,6.59,6.59,0,0,1-1.62,1.59,4.71,4.71,0,0,0,1.91-.56,11.25,11.25,0,0,0,1.52-1,16.15,16.15,0,0,0,1.25-1.09c.16-.16.49-.53.45-.7a2.4,2.4,0,0,0-.33-.46,5.49,5.49,0,0,0,2.25-.73,10.87,10.87,0,0,0,1.43-.2A7.13,7.13,0,0,0,96,29.28a1.4,1.4,0,0,0-.74-.32h-.07c-.18,0-.34.07-.54.07h-.05a1.74,1.74,0,0,1-.41,0c-.38-.1-.31-1-.31-1a7.26,7.26,0,0,1,.25-1.43c.14-.35.4-.76.58-1.11s.36-.55.28-1a10.6,10.6,0,0,0-.78-2.87A13.25,13.25,0,0,0,92.64,19a15.34,15.34,0,0,0-1.1-1.16H91"></path>
            <path class="svg-hd-birds" d="M127.71,19.87h0c2.12,2.51,5.24,6.72,5.24,6.72a2.47,2.47,0,0,1,.35,1.93,33.76,33.76,0,0,0-.59,4.6c-.31,0-2.75-.05-5.33-.05l-5.1,0c.44.18,2.94.92,3.25,1,1.06.24,2,.48,3,.66a2.61,2.61,0,0,1,1.82.85A15,15,0,0,0,132.06,38l-.17.19a66.7,66.7,0,0,1-5.81,3.91s3.55-1.17,4.73-1.38c.75-.13,2-.13,2.77-.21.55-.05,2.95-.73,3.52-.89a23.5,23.5,0,0,0,3.28-1.26c.41-.19.66-.23,1-.38a2.07,2.07,0,0,1,.71-.15h0A19.3,19.3,0,0,0,145,39.39a9.13,9.13,0,0,0-2.15-2.33,2.55,2.55,0,0,0-1.28-1.6,3.63,3.63,0,0,0-1.27-.23,3.45,3.45,0,0,0-1.31.24c-.78-.4-.88-1.4-1-2.22a8.14,8.14,0,0,1,.7-4.42,2.26,2.26,0,0,0-.11-1.82,9,9,0,0,0-2.14-2.35c-2.89-2.63-8.63-4.79-8.8-4.79"></path>
        </g>
    </g>
</svg>