<svg xmlns="http://www.w3.org/2000/svg" viewBox="0 0 314.57 122.09"><defs><style>.cls-1{fill:#4cc0e0;}</style></defs><title>universities birds</title><g id="Layer_2" data-name="Layer 2"><g id="Main_content" data-name="Main content"><path class="cls-1" d="M134.23,29h0c2,6.83,4.38,17.88,4.38,17.88a5.31,5.31,0,0,1-1,4.12c-1.61,2.71-4,5.53-5.23,8.54-1-.59-14.6-6.69-20.54-9.28.71.74,5,4.42,5.53,4.83,1.88,1.42,3.59,2.75,5.41,4,1.22.83,2.68,1.93,2.83,3.29a33.68,33.68,0,0,0,1.23,6.27l-.51.14c-2.09.48-11.71,2.43-14.92,2.57,0,0,8,.84,10.54,1.46,1.59.39,4,1.48,5.64,2,1.13.38,6.46,1.16,7.73,1.36a47.83,47.83,0,0,0,7,.42h.7c.94,0,1.46.13,2.3.16a4.37,4.37,0,0,1,1.59.35,41.58,41.58,0,0,0,4.29,5.65,19.83,19.83,0,0,0-2.18-6.5s.43-2.75-1.11-4.28a7.86,7.86,0,0,0-5.11-2.25h0c-1.19-1.47-.5-3.55.06-5.23a15.27,15.27,0,0,1,3-5.65c1.22-1.46,3.64-3.58,3.67-5.49,0-2.59-1.13-4.83-2.15-7.16C144,38.42,134.41,29,134.23,29"/><path class="cls-1" d="M18.6,20.79s1,1.48,1.59,2.24c2.1,2.68,5,6.7,5.35,10.81a3.25,3.25,0,0,1-.22,1.62A200.21,200.21,0,0,0,5,26L0,24.39c.31.42,7.21,5.61,7.88,6.09,1.73,1.25,9.43,7.22,11.2,8.57a10.16,10.16,0,0,1,1.82,1.83c.39,1-.3,2.44-.89,4.33-2.15,7,1,12.16-4.81,15.26L5.5,63l5.32-.21c.73,0,1.56-.08,2.44-.08A47.26,47.26,0,0,1,19,63l1.57.16a28.06,28.06,0,0,0,3.21.14h.9c2.69,0,8.94-1,8.94-1,3.76-.61,5.66-3,9.91-4,0,0,1.65-.17,2.84-.27s4.51-.8,4.51-.8A50.75,50.75,0,0,0,44,56a9.72,9.72,0,0,0-4.95-1.4l-.61,0a15.63,15.63,0,0,0-3.58.5,10.9,10.9,0,0,1-.7-7.93,20.94,20.94,0,0,1,2-5.66c.5-.82,1.19-1.27,1.22-2.1.13-2.72-1.41-5.31-3.28-7.94-2.61-3.68-7.4-7.14-11.1-8.89a19.74,19.74,0,0,0-4.41-1.77"/><path class="cls-1" d="M157.05,60.54c-.26,0,.69,5.59.9,6.11s1.77,14.22,1.21,16.2c-.7,2.45-2.45,6-3,7.86-.74,2.46-1,4.69-1.61,7-.5,2-3.23,5.85-5.16,6.53-1.52.54-4.32.71-6,1.06-.76.16-5.78.87-6.52,1,.69.06,7.81.47,8.46.58,1.82.31,3.38.57,5.35,1l1.58.27c.11.68.63,4.27.6,4.43a20.33,20.33,0,0,1-2.29,3.76,24.74,24.74,0,0,1-6.38,5.69h.24a18.12,18.12,0,0,0,7-1.78,42.23,42.23,0,0,0,5.89-3.45,60.52,60.52,0,0,0,4.9-3.87c.65-.59,1.94-1.9,1.83-2.55a9.19,9.19,0,0,0-1.15-1.8,20.69,20.69,0,0,0,8.61-2.36,40.77,40.77,0,0,0,5.4-.51,26.66,26.66,0,0,0-5.16-1.31,5.32,5.32,0,0,0-2.73-1.31,2.66,2.66,0,0,0-.4,0,5.93,5.93,0,0,0-.87.09,6.08,6.08,0,0,1-.9.09h-.15a7.32,7.32,0,0,1-1.73-.24c-1.4-.45-1-3.92-1-3.92a27.31,27.31,0,0,1,1.2-5.34c.59-1.3,1.62-2.78,2.36-4.08s1.45-2,1.23-3.54c-.25-1.82-.57-6.55-2.43-10.92A50.17,50.17,0,0,0,161,65.1a57.62,57.62,0,0,0-3.94-4.56h0"/><path class="cls-1" d="M197.68,7.24s0,0,0,.06l0-.06a74.19,74.19,0,0,1,6.4,4.35c1.62,1.41,2.91,2.62,4.06,3.81C207,14.22,205.7,13,204.08,11.6a73.82,73.82,0,0,0-6.4-4.35h0m12.55,10.45c1.21,1.4,2.38,2.9,3.81,4.72a35,35,0,0,1,3.34,5.25A35,35,0,0,0,214,22.42c-1.43-1.83-2.6-3.32-3.81-4.72m9.51,15.14c.39,1,.7,1.76.93,2.32a4.19,4.19,0,0,1,.36,1.69,13.1,13.1,0,0,1-.72,3.11c-.35,1.32-.85,2.8-1.21,4.2.37-1.4.86-2.88,1.21-4.2.5-1.87,1.13-3,.36-4.8-.24-.56-.54-1.36-.93-2.32M206.57,45.27c0,1.15,0,2.24.06,3.31,0-.77-.06-1.56-.06-2.37q0-.46,0-.94m.06,3.31v0m0,.08v0m12,.23c0,.9.14,1.83.22,2.66-.08-.84-.17-1.77-.22-2.66m1,6.37c.4,1.06,1,2.08,1.9,2.12h0c-.89,0-1.5-1.06-1.9-2.12m7.25.87-.29,0a28.5,28.5,0,0,0-2.83.94,10,10,0,0,1-2,.28h0a10,10,0,0,0,2-.28,28.68,28.68,0,0,1,2.83-.94l.29,0m2,.17a6.84,6.84,0,0,1,1.56.57,14.34,14.34,0,0,1,1.87-.17,14.34,14.34,0,0,0-1.87.17,6.84,6.84,0,0,0-1.56-.57m8.4.48a52.44,52.44,0,0,1-6.53,2.43,29.87,29.87,0,0,1-5.13,3.71,29.82,29.82,0,0,0,5.13-3.71,52.69,52.69,0,0,0,6.53-2.43h0m-30.76,0c-.65,2.55-2,5.64-3.51,7,1.47-1.31,2.86-4.4,3.51-7m-3.51,7h0m0,0h0m-.78.54c-1.8,1.07-4.82,2.1-6.66,3,1.85-.93,4.87-2,6.66-3m20.53,2.36a1,1,0,0,1,.13.2l.07.35a4.1,4.1,0,0,1-.43,1.52,2.76,2.76,0,0,0,.37-1.87,1,1,0,0,0-.13-.2m-27.23.68c-.44.22-2.06.93-3.72,1.65,1.66-.72,3.28-1.42,3.72-1.65m12,.66-1.43.13L207.5,68Zm-4.62.31c-1.17.08-2.28.17-3.45.28,1.17-.11,2.27-.2,3.45-.28m-7.75,1c-2.93.58-6.78,1.37-7.35,1.47h0c.56-.1,4.41-.89,7.35-1.47m26.4,1.24,0,0-.06.09-.13.2.13-.2.06-.09m-11.8,2.78a24,24,0,0,1-1.47,5.07,24.6,24.6,0,0,0,1.47-5Zm9.29.78c-.81,1.07-1.63,2.1-2.33,3a54,54,0,0,1-6.16,6.24,21.78,21.78,0,0,1-3.15,2.28,21.91,21.91,0,0,0,3.15-2.28,54,54,0,0,0,6.16-6.24c.7-.86,1.52-1.89,2.33-3m-13.54,9.59a36.93,36.93,0,0,1-3.38,4.23,36.88,36.88,0,0,0,3.38-4.23"/><path class="cls-1" d="M197.68,7.24l0,.06a48.07,48.07,0,0,0,3.17,7.23c.42.54,6.87,16.92,6.88,19.67v0c-.05,3.27-1,8.27-1.12,10.76,0,.09,0,.19,0,.28,0,.32,0,.63,0,.94,0,.81,0,1.6.07,2.37,0,0,0,0,0,.06v0s0,0,0,0c.09,1.86.24,3.64.26,5.5v.06a10.82,10.82,0,0,1-.38,2.53c-.65,2.55-2,5.64-3.51,7h0a3.46,3.46,0,0,1-.33.26l-.45.29c-1.8,1.07-4.81,2.1-6.66,3h0c-.44.22-2.06.93-3.72,1.65s-3.58,1.55-4,1.78h0c.57-.1,4.42-.89,7.35-1.47,1.67-.33,3-.59,3.35-.62l1-.09c1.17-.11,2.27-.2,3.45-.28.81-.05,1.66-.1,2.57-.13l.62-.06,1.43-.13h0c.35.8,2.2,5.09,2.21,5.3v0a24.65,24.65,0,0,1-1.47,5l-.12.34a23.15,23.15,0,0,1-2.66,5,36.76,36.76,0,0,1-3.38,4.23h0a19.94,19.94,0,0,0,5.28-2.34,21.9,21.9,0,0,0,3.15-2.28,54,54,0,0,0,6.16-6.24c.7-.86,1.52-1.89,2.33-3s1.66-2.24,2.33-3.27l.13-.2.06-.09h0a15.23,15.23,0,0,0,1-1.81,4.07,4.07,0,0,0,.43-1.52l-.06-.35a1.07,1.07,0,0,0-.13-.2A15.82,15.82,0,0,0,220.85,65a33.85,33.85,0,0,0,4.77-2.07,29.83,29.83,0,0,0,5.13-3.71,52.33,52.33,0,0,0,6.53-2.43h0a24.67,24.67,0,0,0-2.91-.13c-.69,0-1.41,0-2.06,0a14.34,14.34,0,0,0-1.87.17,7,7,0,0,0-3.14-.76h-.4l-.29,0a28.58,28.58,0,0,0-2.83.94,10,10,0,0,1-2,.28h-.19c-.89,0-1.5-1.06-1.9-2.12a13.17,13.17,0,0,1-.62-2.41c0-.39-.08-.82-.13-1.29-.08-.84-.17-1.77-.22-2.66,0-.48,0-1,0-1.4a10.63,10.63,0,0,1,.1-1.67c.09-.53.21-1.08.36-1.66.37-1.4.86-2.88,1.21-4.2a13.05,13.05,0,0,0,.72-3.11,4.19,4.19,0,0,0-.36-1.69c-.24-.56-.54-1.36-.93-2.32-.59-1.45-1.36-3.26-2.37-5.17A35.09,35.09,0,0,0,214,22.42c-1.43-1.83-2.6-3.32-3.81-4.72-.67-.78-1.35-1.52-2.08-2.29C207,14.22,205.7,13,204.08,11.6a74,74,0,0,0-6.4-4.35"/><path class="cls-1" d="M78.39,0c-.41,0-.19,5-.31,5.42-.2.68-.2,15.5-.2,16.15a33.85,33.85,0,0,1-1.73,6.58c-.32.9-1.78,6.49-1.95,6.81a34,34,0,0,1-2.52,2.69,9.75,9.75,0,0,1-1.13.72,3.69,3.69,0,0,1-1.4.23c-.67,0-1.36-.11-2-.13a69,69,0,0,1-8.08-.84c2,.72,6.39,2.07,7.92,3.51.72.68,5.19,2.39,6.11,2.7,2.33.78,4.08,1.51,6.48,2.2a10.48,10.48,0,0,0,2.44.52h1.36c1.22,0,2.88,0,3.64.11l2.5.25a45.73,45.73,0,0,0,4.81,1.63,17.73,17.73,0,0,0-4.1-3.2,10,10,0,0,0-3.15-2.8h0c.88,0,4.39-1.08,4.59-1.75.15-.5-.77-2.42-1-2.85-.28-.65-1.76-4.38-2.43-5.53a13.35,13.35,0,0,1-1.74,3.47,8.66,8.66,0,0,1-3.77,2.51l0-.12c.41-3,3-8.25,3.09-8.47,1.27-2.5.76-4.34.24-7.09C85.86,21.22,78.63,0,78.4,0h0"/><path class="cls-1" d="M288.77,4h0c-.33.1,1.21,4,1.22,4.39,0,.59,4,12.34,4.21,12.86a28.33,28.33,0,0,1,.41,5.68c0,.8.35,5.63.3,5.93a28.58,28.58,0,0,1-1.27,2.82l-.7.88a7,7,0,0,1-2.67,1,57.62,57.62,0,0,1-6.63,1.52c1.74,0,5.63-.09,7.23.64a29.39,29.39,0,0,0,5.54.49h.32l1.75,0,1.67,0c.64,0,1.31,0,2,0a8.64,8.64,0,0,0,2.08-.25c.46-.16,3-1.07,4-1.27l2.05-.47c.61,0,1.39.05,2.13.05s1.71,0,2.13-.06a14.86,14.86,0,0,0-4.12-1.43,8.39,8.39,0,0,0-3.26-1.37c.67-.21,3.21-2,3.18-2.64,0-.44-1.26-1.71-1.53-2s-2.58-3-3.43-3.73a11.16,11.16,0,0,1-.44,3.23,7.28,7.28,0,0,1-2.31,3l0-.1c-.47-2.47.13-7.35.15-7.55.33-2.32-.57-3.64-1.73-5.69C300.45,18.77,289,4,288.77,4"/><path class="cls-1" d="M171.78,33.23a16.09,16.09,0,0,0,.59,3c.11.24,1.21,7,1,8-.29,1.23-1.08,3-1.31,4-.31,1.24-.4,2.36-.64,3.51A6.17,6.17,0,0,1,169,55.16a29.18,29.18,0,0,1-3,.67c-.37.1-2.86.56-3.22.66.35,0,3.9.05,4.23.09.92.11,1.69.21,2.69.39l.79.1c.07.33.41,2.11.4,2.19a10.26,10.26,0,0,1-1.05,1.93,12.37,12.37,0,0,1-3,3,8.84,8.84,0,0,0,3.58-1.05,21.11,21.11,0,0,0,2.85-1.86,30.32,30.32,0,0,0,2.35-2c.31-.31.92-1,.85-1.31a4.51,4.51,0,0,0-.61-.87A10.31,10.31,0,0,0,180,55.66a20.4,20.4,0,0,0,2.68-.38,13.38,13.38,0,0,0-2.6-.53,2.63,2.63,0,0,0-1.39-.59h-.13c-.35,0-.65.13-1,.13h-.09a3.27,3.27,0,0,1-.77-.08c-.71-.19-.59-1.93-.59-1.93a13.62,13.62,0,0,1,.47-2.69c.26-.66.74-1.42,1.08-2.09s.67-1,.53-1.79a19.9,19.9,0,0,0-1.46-5.38,24.86,24.86,0,0,0-2.88-4.92,28.78,28.78,0,0,0-2.07-2.18h0"/><path class="cls-1" d="M239.67,38.13h0c4,4.72,9.83,12.61,9.83,12.61a4.63,4.63,0,0,1,.65,3.63C249.83,57.1,249,60.17,249,63c-.57-.07-5.15-.1-10-.1-3.53,0-7.2,0-9.57,0,.82.34,5.53,1.73,6.1,1.86,2,.45,3.82.9,5.7,1.24,1.27.23,2.81.58,3.41,1.6a28.22,28.22,0,0,0,3.15,4.46l-.31.36a125.17,125.17,0,0,1-10.91,7.34s6.67-2.19,8.87-2.59c1.4-.25,3.7-.25,5.19-.39,1-.1,5.53-1.37,6.61-1.67a44.1,44.1,0,0,0,6.16-2.37c.77-.35,1.24-.44,1.93-.72a3.89,3.89,0,0,1,1.33-.29h.06a36.22,36.22,0,0,0,5.41,3,17.13,17.13,0,0,0-4-4.38s-.63-2.34-2.4-3a6.82,6.82,0,0,0-2.39-.43,6.48,6.48,0,0,0-2.47.46c-1.46-.75-1.66-2.63-1.81-4.16a13.23,13.23,0,0,1,.4-5.56c.45-1.59,1.61-4.13,1-5.65-.89-2.06-2.61-3.42-4.25-4.91-5.42-4.93-16.2-9-16.51-9"/></g></g></svg>